<svg class="h-8 sm:hidden" xmlns="http://www.w3.org/2000/svg" viewBox="0 0 20.4 23.2">
  <g>
    <linearGradient
      id="innerGradient"
      gradientUnits="userSpaceOnUse"
      x1="10.156"
      y1="22.45"
      x2="10.156"
      y2="2.4614"
      gradientTransform="matrix(1 0 0 -1 0 24)"
    >
      <stop offset="0" style="stop-color:#081692" />
      <stop offset="1" style="stop-color:#1E043C" />
    </linearGradient>
    <linearGradient
      id="outerGradient"
      gradientUnits="userSpaceOnUse"
      x1="10.156"
      y1="22.45"
      x2="10.156"
      y2="2.45"
      gradientTransform="matrix(1 0 0 -1 0 24)"
    >
      <stop offset="0" style="stop-color:#1284F7" />
      <stop offset="1" style="stop-color:#0A20C9" />
    </linearGradient>
    <path style="fill:url(#innerGradient)" d="M1.5,6.6v10l8.7,5l8.7-5v-10l-8.7-5L1.5,6.6z" />
    <path
      style="fill:url(#outerGradient)"
      d="M10.2 4.7 16.1 8.1V15L10.2 18.4 4.2 15V8.1L10.2 4.7M10.2 1.6 1.5 6.6V16.6L10.2 21.6 18.9 16.6V6.6L10.2 1.6"
    />
    <path
      style="fill:#fff"
      d="M11.8,12.4l-1.7,1l-1.7-1v-1.9l1.7-1l1.7,1h2.1V9.3l-3.8-2.2L6.4,9.3v4.3l3.8,2.2l3.8-2.2v-1.2H11.8z"
    />
    <path style="fill: #c21911;" d="M0 23.2 9 10.23 20.4 0 11.4 12.96 0 23.2" />
  </g>
</svg>